<?xml version="1.0" encoding="UTF-8"?>
<svg id="_레이어_1" data-name="레이어 1" xmlns="http://www.w3.org/2000/svg" viewBox="0 0 1024 1024">
  <defs>
    <style>
      .cls-1 {
        fill: #fff;
        stroke-width: 0px;
      }
    </style>
  </defs>
  <g id="layer1">
    <polygon class="cls-1" points="615.35 156.49 794.97 156.49 794.97 733.02 910.91 733.02 910.91 867.51 615.35 867.51 615.35 156.49"/>
  </g>
  <g id="layer2">
    <path class="cls-1" d="m329.78,156.88c26.4-.62,45.67-1.48,77.68,5.7,29.22,6.54,63.67,14.08,92.39,43.02,21.66,21.84,39.47,57.47,39.47,76.71v441.2c0,14.97-2.14,49.18-15.55,84.45-4.3,11.33-15.1,45.98-65.38,54.01-22.62,3.62-33.1,5.76-51.64,5.5H113.09V156.87h216.67l.02.02Zm25.44,165.6c.47-3.23,2.63-20.29-8.8-34.21-11.51-14.01-32.1-19.14-51.32-12.35v477.06c18.41,5.34,37.78.13,49.42-13.31,12.37-14.29,10.81-31.85,10.46-35.16.08-127.35.16-254.69.24-382.04v.02Z"/>
  </g>
</svg>